# xmcd
#
# Track frame offsets: 
#        150
#        21707
#        37835
#        55704
#        72346
#        89543
#        105871
#        122629
#        142240
#        158769
#        175766
#        192820
#
# Disc length: 2984 seconds
#
# Revision: 0
# Processed by: cddbd v1.5.2PL0 Copyright (c) Steve Scherf et al.
# Submitted via: ExactAudioCopy v1.0b3
#
DISCID=9e0ba60c
DTITLE=Electro Spectre - Watch It All Turn
DYEAR=2009
DGENRE=Electro pop
TTITLE0=You Wear the Jesus
TTITLE1=Six Strings From Hell
TTITLE2=Ruler of My Kingdom
TTITLE3=Yet It's Love
TTITLE4=Shine On Lover
TTITLE5=Frankie (Boys Like You)
TTITLE6=Night in Japan
TTITLE7=Addict of Love
TTITLE8=Monster
TTITLE9=Strange Pictures
TTITLE10=Subsoil Babylon
TTITLE11=Watch It All Turn
EXTD=
EXTT0=
EXTT1=
EXTT2=
EXTT3=
EXTT4=
EXTT5=
EXTT6=
EXTT7=
EXTT8=
EXTT9=
EXTT10=
EXTT11=
PLAYORDER=
